{
  "accessors": [
    {
      "bufferView": 2,
      "componentType": 5126,
      "count": 3745,
      "max": [
        0.20000000298023224,
        1.0,
        4.5
      ],
      "min": [
        -0.20000000298023224,
        0.49942898750305176,
        4.0
      ],
      "type": "VEC3"
    },
    {
      "bufferView": 2,
      "byteOffset": 44940,
      "componentType": 5126,
      "count": 3745,
      "max": [
        1.0,
        1.0,
        1.0
      ],
      "min": [
        -1.0,
        -1.0,
        -1.0
      ],
      "type": "VEC3"
    },
    {
      "bufferView": 1,
      "componentType": 5126,
      "count": 3745,
      "max": [
        0.8692160248756409,
        1.0134199857711792
      ],
      "min": [
        0.0036359999794512987,
        -0.013419999741017818
      ],
      "type": "VEC2"
    },
    {
      "bufferView": 0,
      "componentType": 5125,
      "count": 18090,
      "type": "SCALAR"
    },
    {
      "bufferView": 2,
      "byteOffset": 89880,
      "componentType": 5126,
      "count": 8392,
      "max": [
        0.20000000298023224,
        1.0,
        5.400000095367432
      ],
      "min": [
        -0.20000000298023224,
        -1.0,
        4.000017166137695
      ],
      "type": "VEC3"
    },
    {
      "bufferView": 2,
      "byteOffset": 190584,
      "componentType": 5126,
      "count": 8392,
      "max": [
        1.0,
        1.0,
        1.0
      ],
      "min": [
        -1.0,
        -1.0,
        -1.0
      ],
      "type": "VEC3"
    },
    {
      "bufferView": 1,
      "byteOffset": 29960,
      "componentType": 5126,
      "count": 8392,
      "max": [
        1.0,
        1.0134199857711792
      ],
      "min": [
        0.0,
        -0.013419000431895256
      ],
      "type": "VEC2"
    },
    {
      "bufferView": 0,
      "byteOffset": 72360,
      "componentType": 5125,
      "count": 37521,
      "type": "SCALAR"
    },
    {
      "bufferView": 2,
      "byteOffset": 291288,
      "componentType": 5126,
      "count": 671,
      "max": [
        0.20000000298023224,
        0.4000000059604645,
        5.299999237060547
      ],
      "min": [
        -0.20000000298023224,
        -0.4000000059604645,
        5.099998950958252
      ],
      "type": "VEC3"
    },
    {
      "bufferView": 2,
      "byteOffset": 299340,
      "componentType": 5126,
      "count": 671,
      "max": [
        0.9996567368507385,
        0.9996567368507385,
        0.9991874694824219
      ],
      "min": [
        -0.9991874694824219,
        -0.9996567368507385,
        -0.9991903305053711
      ],
      "type": "VEC3"
    },
    {
      "bufferView": 1,
      "byteOffset": 97096,
      "componentType": 5126,
      "count": 671,
      "max": [
        1.0,
        1.0
      ],
      "min": [
        0.0,
        0.0
      ],
      "type": "VEC2"
    },
    {
      "bufferView": 0,
      "byteOffset": 222444,
      "componentType": 5125,
      "count": 2328,
      "type": "SCALAR"
    },
    {
      "bufferView": 2,
      "byteOffset": 307392,
      "componentType": 5126,
      "count": 727,
      "max": [
        0.16128000617027283,
        0.8999999761581421,
        4.5
      ],
      "min": [
        -0.16128000617027283,
        -0.8999999761581421,
        0.5
      ],
      "type": "VEC3"
    },
    {
      "bufferView": 2,
      "byteOffset": 316116,
      "componentType": 5126,
      "count": 727,
      "max": [
        1.0,
        1.0,
        1.0
      ],
      "min": [
        -1.0,
        -1.0,
        -1.0
      ],
      "type": "VEC3"
    },
    {
      "bufferView": 1,
      "byteOffset": 102464,
      "componentType": 5126,
      "count": 727,
      "max": [
        0.875,
        1.0
      ],
      "min": [
        0.0,
        0.0
      ],
      "type": "VEC2"
    },
    {
      "bufferView": 0,
      "byteOffset": 231756,
      "componentType": 5125,
      "count": 1536,
      "type": "SCALAR"
    }
  ],
  "asset": {
    "extras": {
      "author": "MattyDMakesGames (https://sketchfab.com/MattyDMakesGames)",
      "license": "CC-BY-4.0 (http://creativecommons.org/licenses/by/4.0/)",
      "source": "https://sketchfab.com/3d-models/sci-fi-key-card-dd5733bc673e436590b9186dbbf0f387",
      "title": "Sci-fi Key Card"
    },
    "generator": "Sketchfab-12.65.0",
    "version": "2.0"
  },
  "bufferViews": [
    {
      "buffer": 0,
      "byteLength": 237900,
      "name": "floatBufferViews",
      "target": 34963
    },
    {
      "buffer": 0,
      "byteLength": 108280,
      "byteOffset": 237900,
      "byteStride": 8,
      "name": "floatBufferViews",
      "target": 34962
    },
    {
      "buffer": 0,
      "byteLength": 324840,
      "byteOffset": 346180,
      "byteStride": 12,
      "name": "floatBufferViews",
      "target": 34962
    }
  ],
  "buffers": [
    {
      "byteLength": 671020,
      "uri": "scene.bin"
    }
  ],
  "materials": [
    {
      "doubleSided": true,
      "name": "Carpaint",
      "pbrMetallicRoughness": {
        "metallicFactor": 0.0,
        "roughnessFactor": 0.6
      }
    },
    {
      "doubleSided": true,
      "name": "Emission",
      "pbrMetallicRoughness": {
        "metallicFactor": 0.0,
        "roughnessFactor": 0.6
      }
    },
    {
      "doubleSided": true,
      "name": "General",
      "pbrMetallicRoughness": {
        "metallicFactor": 0.0,
        "roughnessFactor": 0.6
      }
    },
    {
      "doubleSided": true,
      "name": "Material.001",
      "pbrMetallicRoughness": {
        "metallicFactor": 0.0,
        "roughnessFactor": 0.6
      }
    }
  ],
  "meshes": [
    {
      "name": "Object_0",
      "primitives": [
        {
          "attributes": {
            "NORMAL": 1,
            "POSITION": 0,
            "TEXCOORD_0": 2
          },
          "indices": 3,
          "material": 3,
          "mode": 4
        }
      ]
    },
    {
      "name": "Object_1",
      "primitives": [
        {
          "attributes": {
            "NORMAL": 5,
            "POSITION": 4,
            "TEXCOORD_0": 6
          },
          "indices": 7,
          "material": 0,
          "mode": 4
        }
      ]
    },
    {
      "name": "Object_2",
      "primitives": [
        {
          "attributes": {
            "NORMAL": 9,
            "POSITION": 8,
            "TEXCOORD_0": 10
          },
          "indices": 11,
          "material": 1,
          "mode": 4
        }
      ]
    },
    {
      "name": "Object_3",
      "primitives": [
        {
          "attributes": {
            "NORMAL": 13,
            "POSITION": 12,
            "TEXCOORD_0": 14
          },
          "indices": 15,
          "material": 2,
          "mode": 4
        }
      ]
    }
  ],
  "nodes": [
    {
      "children": [
        1
      ],
      "matrix": [
        -2.220446049250313e-16,
        6.123234262925839e-17,
        -1.0,
        0.0,
        -1.0,
        1.6081226229577287e-16,
        2.2204460492503136e-16,
        0.0,
        1.6081226229577292e-16,
        1.0,
        6.123234262925839e-17,
        0.0,
        -1.862645149230957e-07,
        -5.1285197978287716e-23,
        2.3096799850463867e-07,
        1.0
      ],
      "name": "Sketchfab_model"
    },
    {
      "children": [
        2,
        3,
        4,
        5
      ],
      "name": "Card.obj.cleaner.materialmerger.gles"
    },
    {
      "mesh": 0,
      "name": "Object_2"
    },
    {
      "mesh": 1,
      "name": "Object_3"
    },
    {
      "mesh": 2,
      "name": "Object_4"
    },
    {
      "mesh": 3,
      "name": "Object_5"
    }
  ],
  "scene": 0,
  "scenes": [
    {
      "name": "Sketchfab_Scene",
      "nodes": [
        0
      ]
    }
  ]
}
